<mxfile host="app.diagrams.net" modified="2024-05-23T20:21:47.121Z" agent="Mozilla/5.0 (Windows NT 10.0; Win64; x64) AppleWebKit/537.36 (KHTML, like Gecko) Chrome/120.0.0.0 Safari/537.36" etag="UptLVmlENRXddJPoAOY-" version="24.4.6" type="google">
  <diagram name="Pàgina-1" id="O9BTFKoGRvOCzejiSh1V">
    <mxGraphModel grid="1" page="1" gridSize="10" guides="1" tooltips="1" connect="1" arrows="1" fold="1" pageScale="1" pageWidth="827" pageHeight="1169" math="0" shadow="0">
      <root>
        <mxCell id="0" />
        <mxCell id="1" parent="0" />
        <mxCell id="2Y55vcO3c6jIF8eaEMWM-1" value="COTXE" style="rounded=0;whiteSpace=wrap;html=1;" vertex="1" parent="1">
          <mxGeometry x="290" y="270" width="120" height="60" as="geometry" />
        </mxCell>
        <mxCell id="2Y55vcO3c6jIF8eaEMWM-2" value="MARCA" style="rounded=0;whiteSpace=wrap;html=1;" vertex="1" parent="1">
          <mxGeometry x="295" y="50" width="120" height="60" as="geometry" />
        </mxCell>
        <mxCell id="2Y55vcO3c6jIF8eaEMWM-3" value="TIPUS" style="rounded=0;whiteSpace=wrap;html=1;" vertex="1" parent="1">
          <mxGeometry x="-180" y="50" width="120" height="60" as="geometry" />
        </mxCell>
        <mxCell id="2Y55vcO3c6jIF8eaEMWM-4" value="MOTOR" style="rounded=0;whiteSpace=wrap;html=1;" vertex="1" parent="1">
          <mxGeometry x="610" y="200" width="120" height="60" as="geometry" />
        </mxCell>
        <mxCell id="2Y55vcO3c6jIF8eaEMWM-5" value="SEGONA MA" style="rounded=0;whiteSpace=wrap;html=1;" vertex="1" parent="1">
          <mxGeometry x="30" y="320" width="120" height="60" as="geometry" />
        </mxCell>
        <mxCell id="2Y55vcO3c6jIF8eaEMWM-6" value="COLOR" style="rounded=0;whiteSpace=wrap;html=1;" vertex="1" parent="1">
          <mxGeometry x="610" y="430" width="120" height="60" as="geometry" />
        </mxCell>
        <mxCell id="2Y55vcO3c6jIF8eaEMWM-7" value="MODEL" style="rounded=0;whiteSpace=wrap;html=1;" vertex="1" parent="1">
          <mxGeometry x="50" y="50" width="120" height="60" as="geometry" />
        </mxCell>
        <mxCell id="2Y55vcO3c6jIF8eaEMWM-13" value="té" style="rhombus;whiteSpace=wrap;html=1;" vertex="1" parent="1">
          <mxGeometry x="310" y="150" width="80" height="80" as="geometry" />
        </mxCell>
        <mxCell id="2Y55vcO3c6jIF8eaEMWM-14" value="" style="endArrow=none;html=1;rounded=0;entryX=0.5;entryY=1;entryDx=0;entryDy=0;exitX=0.5;exitY=0;exitDx=0;exitDy=0;" edge="1" parent="1" source="2Y55vcO3c6jIF8eaEMWM-1" target="2Y55vcO3c6jIF8eaEMWM-13">
          <mxGeometry width="50" height="50" relative="1" as="geometry">
            <mxPoint x="310" y="290" as="sourcePoint" />
            <mxPoint x="360" y="240" as="targetPoint" />
          </mxGeometry>
        </mxCell>
        <mxCell id="2Y55vcO3c6jIF8eaEMWM-15" value="" style="endArrow=none;html=1;rounded=0;entryX=0.45;entryY=1;entryDx=0;entryDy=0;entryPerimeter=0;exitX=0.5;exitY=0;exitDx=0;exitDy=0;" edge="1" parent="1" source="2Y55vcO3c6jIF8eaEMWM-13" target="2Y55vcO3c6jIF8eaEMWM-2">
          <mxGeometry width="50" height="50" relative="1" as="geometry">
            <mxPoint x="310" y="170" as="sourcePoint" />
            <mxPoint x="360" y="120" as="targetPoint" />
          </mxGeometry>
        </mxCell>
        <mxCell id="2Y55vcO3c6jIF8eaEMWM-17" value="deferents" style="rhombus;whiteSpace=wrap;html=1;" vertex="1" parent="1">
          <mxGeometry x="-40" y="50" width="70" height="60" as="geometry" />
        </mxCell>
        <mxCell id="2Y55vcO3c6jIF8eaEMWM-21" value="té" style="rhombus;whiteSpace=wrap;html=1;" vertex="1" parent="1">
          <mxGeometry x="190" y="40" width="80" height="80" as="geometry" />
        </mxCell>
        <mxCell id="2Y55vcO3c6jIF8eaEMWM-22" value="" style="endArrow=none;html=1;rounded=0;entryX=0;entryY=0.5;entryDx=0;entryDy=0;exitX=1;exitY=0.5;exitDx=0;exitDy=0;" edge="1" parent="1" source="2Y55vcO3c6jIF8eaEMWM-7" target="2Y55vcO3c6jIF8eaEMWM-21">
          <mxGeometry width="50" height="50" relative="1" as="geometry">
            <mxPoint x="150" y="150" as="sourcePoint" />
            <mxPoint x="200" y="100" as="targetPoint" />
          </mxGeometry>
        </mxCell>
        <mxCell id="2Y55vcO3c6jIF8eaEMWM-23" value="" style="endArrow=none;html=1;rounded=0;entryX=0;entryY=0.5;entryDx=0;entryDy=0;exitX=1;exitY=0.5;exitDx=0;exitDy=0;" edge="1" parent="1" source="2Y55vcO3c6jIF8eaEMWM-21" target="2Y55vcO3c6jIF8eaEMWM-2">
          <mxGeometry width="50" height="50" relative="1" as="geometry">
            <mxPoint x="230" y="150" as="sourcePoint" />
            <mxPoint x="280" y="100" as="targetPoint" />
          </mxGeometry>
        </mxCell>
        <mxCell id="2Y55vcO3c6jIF8eaEMWM-25" value="" style="endArrow=none;html=1;rounded=0;exitX=1;exitY=0.5;exitDx=0;exitDy=0;entryX=0;entryY=0.5;entryDx=0;entryDy=0;" edge="1" parent="1" source="2Y55vcO3c6jIF8eaEMWM-1" target="2Y55vcO3c6jIF8eaEMWM-26">
          <mxGeometry width="50" height="50" relative="1" as="geometry">
            <mxPoint x="390" y="390" as="sourcePoint" />
            <mxPoint x="490" y="270" as="targetPoint" />
            <Array as="points">
              <mxPoint x="470" y="300" />
              <mxPoint x="470" y="270" />
              <mxPoint x="470" y="230" />
            </Array>
          </mxGeometry>
        </mxCell>
        <mxCell id="2Y55vcO3c6jIF8eaEMWM-26" value="té tipus" style="rhombus;whiteSpace=wrap;html=1;" vertex="1" parent="1">
          <mxGeometry x="480" y="190" width="80" height="80" as="geometry" />
        </mxCell>
        <mxCell id="2Y55vcO3c6jIF8eaEMWM-31" value="pintat" style="rhombus;whiteSpace=wrap;html=1;" vertex="1" parent="1">
          <mxGeometry x="470" y="420" width="80" height="80" as="geometry" />
        </mxCell>
        <mxCell id="2Y55vcO3c6jIF8eaEMWM-32" value="" style="endArrow=none;html=1;rounded=0;entryX=0.5;entryY=1;entryDx=0;entryDy=0;exitX=0;exitY=0.5;exitDx=0;exitDy=0;" edge="1" parent="1" source="2Y55vcO3c6jIF8eaEMWM-31" target="2Y55vcO3c6jIF8eaEMWM-1">
          <mxGeometry width="50" height="50" relative="1" as="geometry">
            <mxPoint x="390" y="420" as="sourcePoint" />
            <mxPoint x="440" y="370" as="targetPoint" />
            <Array as="points">
              <mxPoint x="350" y="460" />
            </Array>
          </mxGeometry>
        </mxCell>
        <mxCell id="2Y55vcO3c6jIF8eaEMWM-33" value="" style="endArrow=none;html=1;rounded=0;entryX=0;entryY=0.5;entryDx=0;entryDy=0;exitX=1;exitY=0.5;exitDx=0;exitDy=0;" edge="1" parent="1" source="2Y55vcO3c6jIF8eaEMWM-31" target="2Y55vcO3c6jIF8eaEMWM-6">
          <mxGeometry width="50" height="50" relative="1" as="geometry">
            <mxPoint x="530" y="530" as="sourcePoint" />
            <mxPoint x="580" y="480" as="targetPoint" />
          </mxGeometry>
        </mxCell>
        <mxCell id="2Y55vcO3c6jIF8eaEMWM-46" value="" style="endArrow=none;html=1;rounded=0;entryX=0;entryY=0.5;entryDx=0;entryDy=0;exitX=1;exitY=0.5;exitDx=0;exitDy=0;" edge="1" parent="1" source="2Y55vcO3c6jIF8eaEMWM-26" target="2Y55vcO3c6jIF8eaEMWM-4">
          <mxGeometry width="50" height="50" relative="1" as="geometry">
            <mxPoint x="540" y="300" as="sourcePoint" />
            <mxPoint x="590" y="250" as="targetPoint" />
          </mxGeometry>
        </mxCell>
        <mxCell id="2Y55vcO3c6jIF8eaEMWM-47" value="" style="endArrow=none;html=1;rounded=0;" edge="1" parent="1">
          <mxGeometry width="50" height="50" relative="1" as="geometry">
            <mxPoint x="180" y="100" as="sourcePoint" />
            <mxPoint x="180" y="60" as="targetPoint" />
          </mxGeometry>
        </mxCell>
        <mxCell id="2Y55vcO3c6jIF8eaEMWM-51" value="" style="endArrow=none;html=1;rounded=0;" edge="1" parent="1">
          <mxGeometry width="50" height="50" relative="1" as="geometry">
            <mxPoint x="279.5" y="350" as="sourcePoint" />
            <mxPoint x="279.5" y="310" as="targetPoint" />
          </mxGeometry>
        </mxCell>
        <mxCell id="2Y55vcO3c6jIF8eaEMWM-52" value="" style="endArrow=none;html=1;rounded=0;" edge="1" parent="1">
          <mxGeometry width="50" height="50" relative="1" as="geometry">
            <mxPoint x="280" y="100" as="sourcePoint" />
            <mxPoint x="280" y="60" as="targetPoint" />
          </mxGeometry>
        </mxCell>
        <mxCell id="2Y55vcO3c6jIF8eaEMWM-56" value="" style="endArrow=none;html=1;rounded=0;" edge="1" parent="1">
          <mxGeometry width="50" height="50" relative="1" as="geometry">
            <mxPoint x="367.75" y="120" as="sourcePoint" />
            <mxPoint x="332.25" y="120" as="targetPoint" />
          </mxGeometry>
        </mxCell>
        <mxCell id="2Y55vcO3c6jIF8eaEMWM-57" value="" style="endArrow=none;html=1;rounded=0;" edge="1" parent="1">
          <mxGeometry width="50" height="50" relative="1" as="geometry">
            <mxPoint x="367.75" y="260" as="sourcePoint" />
            <mxPoint x="332.25" y="260" as="targetPoint" />
          </mxGeometry>
        </mxCell>
        <mxCell id="2Y55vcO3c6jIF8eaEMWM-58" value="" style="endArrow=none;html=1;rounded=0;" edge="1" parent="1">
          <mxGeometry width="50" height="50" relative="1" as="geometry">
            <mxPoint x="420" y="320" as="sourcePoint" />
            <mxPoint x="420" y="280" as="targetPoint" />
          </mxGeometry>
        </mxCell>
        <mxCell id="2Y55vcO3c6jIF8eaEMWM-59" value="" style="endArrow=none;html=1;rounded=0;" edge="1" parent="1">
          <mxGeometry width="50" height="50" relative="1" as="geometry">
            <mxPoint x="600" y="250" as="sourcePoint" />
            <mxPoint x="600" y="210" as="targetPoint" />
          </mxGeometry>
        </mxCell>
        <mxCell id="2Y55vcO3c6jIF8eaEMWM-62" value="" style="endArrow=none;html=1;rounded=0;" edge="1" parent="1">
          <mxGeometry width="50" height="50" relative="1" as="geometry">
            <mxPoint x="367.75" y="340" as="sourcePoint" />
            <mxPoint x="332.25" y="340" as="targetPoint" />
          </mxGeometry>
        </mxCell>
        <mxCell id="2Y55vcO3c6jIF8eaEMWM-63" value="" style="endArrow=none;html=1;rounded=0;" edge="1" parent="1">
          <mxGeometry width="50" height="50" relative="1" as="geometry">
            <mxPoint x="600" y="480" as="sourcePoint" />
            <mxPoint x="600" y="440" as="targetPoint" />
          </mxGeometry>
        </mxCell>
        <mxCell id="2Y55vcO3c6jIF8eaEMWM-71" value="1" style="text;html=1;align=center;verticalAlign=middle;whiteSpace=wrap;rounded=0;" vertex="1" parent="1">
          <mxGeometry x="250" y="335" width="50" height="25" as="geometry" />
        </mxCell>
        <mxCell id="2Y55vcO3c6jIF8eaEMWM-73" value="M" style="text;html=1;align=center;verticalAlign=middle;whiteSpace=wrap;rounded=0;" vertex="1" parent="1">
          <mxGeometry x="370" y="490" width="60" height="30" as="geometry" />
        </mxCell>
        <mxCell id="2Y55vcO3c6jIF8eaEMWM-74" value="N" style="text;html=1;align=center;verticalAlign=middle;whiteSpace=wrap;rounded=0;" vertex="1" parent="1">
          <mxGeometry x="160" y="40" width="50" height="25" as="geometry" />
        </mxCell>
        <mxCell id="2Y55vcO3c6jIF8eaEMWM-75" value="1" style="text;html=1;align=center;verticalAlign=middle;whiteSpace=wrap;rounded=0;" vertex="1" parent="1">
          <mxGeometry x="250" y="35" width="60" height="30" as="geometry" />
        </mxCell>
        <mxCell id="2Y55vcO3c6jIF8eaEMWM-76" value="1" style="text;html=1;align=center;verticalAlign=middle;whiteSpace=wrap;rounded=0;" vertex="1" parent="1">
          <mxGeometry x="300" y="245" width="50" height="25" as="geometry" />
        </mxCell>
        <mxCell id="2Y55vcO3c6jIF8eaEMWM-77" value="1" style="text;html=1;align=center;verticalAlign=middle;whiteSpace=wrap;rounded=0;" vertex="1" parent="1">
          <mxGeometry x="290" y="110" width="60" height="30" as="geometry" />
        </mxCell>
        <mxCell id="2Y55vcO3c6jIF8eaEMWM-79" value="N" style="text;html=1;align=center;verticalAlign=middle;whiteSpace=wrap;rounded=0;" vertex="1" parent="1">
          <mxGeometry x="10" y="35" width="60" height="30" as="geometry" />
        </mxCell>
        <mxCell id="2Y55vcO3c6jIF8eaEMWM-80" value="1" style="text;html=1;align=center;verticalAlign=middle;whiteSpace=wrap;rounded=0;" vertex="1" parent="1">
          <mxGeometry x="390" y="260" width="50" height="25" as="geometry" />
        </mxCell>
        <mxCell id="2Y55vcO3c6jIF8eaEMWM-83" value="1" style="text;html=1;align=center;verticalAlign=middle;whiteSpace=wrap;rounded=0;" vertex="1" parent="1">
          <mxGeometry x="570" y="190" width="50" height="25" as="geometry" />
        </mxCell>
        <mxCell id="2Y55vcO3c6jIF8eaEMWM-85" value="1" style="text;html=1;align=center;verticalAlign=middle;whiteSpace=wrap;rounded=0;" vertex="1" parent="1">
          <mxGeometry x="350" y="325" width="50" height="25" as="geometry" />
        </mxCell>
        <mxCell id="2Y55vcO3c6jIF8eaEMWM-86" value="1" style="text;html=1;align=center;verticalAlign=middle;whiteSpace=wrap;rounded=0;" vertex="1" parent="1">
          <mxGeometry x="570" y="420" width="50" height="25" as="geometry" />
        </mxCell>
        <mxCell id="uGheI64tB1CJ_IJ5QVsL-3" value="NOU" style="rounded=0;whiteSpace=wrap;html=1;" vertex="1" parent="1">
          <mxGeometry x="30" y="230" width="120" height="60" as="geometry" />
        </mxCell>
        <mxCell id="uGheI64tB1CJ_IJ5QVsL-4" value="" style="endArrow=none;html=1;rounded=0;entryX=0;entryY=0.5;entryDx=0;entryDy=0;" edge="1" parent="1" target="2Y55vcO3c6jIF8eaEMWM-1">
          <mxGeometry width="50" height="50" relative="1" as="geometry">
            <mxPoint x="240" y="300" as="sourcePoint" />
            <mxPoint x="240" y="290" as="targetPoint" />
            <Array as="points">
              <mxPoint x="200" y="300" />
              <mxPoint x="240" y="300" />
            </Array>
          </mxGeometry>
        </mxCell>
        <mxCell id="uGheI64tB1CJ_IJ5QVsL-5" value="" style="endArrow=none;html=1;rounded=0;" edge="1" parent="1">
          <mxGeometry width="50" height="50" relative="1" as="geometry">
            <mxPoint x="200" y="350" as="sourcePoint" />
            <mxPoint x="200" y="260" as="targetPoint" />
          </mxGeometry>
        </mxCell>
        <mxCell id="uGheI64tB1CJ_IJ5QVsL-6" value="" style="endArrow=none;html=1;rounded=0;exitX=1;exitY=0.5;exitDx=0;exitDy=0;" edge="1" parent="1" source="2Y55vcO3c6jIF8eaEMWM-5">
          <mxGeometry width="50" height="50" relative="1" as="geometry">
            <mxPoint x="140" y="410" as="sourcePoint" />
            <mxPoint x="200" y="350" as="targetPoint" />
          </mxGeometry>
        </mxCell>
        <mxCell id="uGheI64tB1CJ_IJ5QVsL-7" value="" style="endArrow=none;html=1;rounded=0;exitX=1;exitY=0.5;exitDx=0;exitDy=0;" edge="1" parent="1" source="uGheI64tB1CJ_IJ5QVsL-3">
          <mxGeometry width="50" height="50" relative="1" as="geometry">
            <mxPoint x="170" y="270" as="sourcePoint" />
            <mxPoint x="200" y="260" as="targetPoint" />
          </mxGeometry>
        </mxCell>
        <mxCell id="uGheI64tB1CJ_IJ5QVsL-8" value="pot estar" style="rhombus;whiteSpace=wrap;html=1;" vertex="1" parent="1">
          <mxGeometry x="210" y="360" width="80" height="80" as="geometry" />
        </mxCell>
        <mxCell id="uGheI64tB1CJ_IJ5QVsL-9" value="" style="endArrow=none;html=1;rounded=0;entryX=0;entryY=1;entryDx=0;entryDy=0;exitX=0.5;exitY=0;exitDx=0;exitDy=0;" edge="1" parent="1" source="uGheI64tB1CJ_IJ5QVsL-8" target="2Y55vcO3c6jIF8eaEMWM-1">
          <mxGeometry width="50" height="50" relative="1" as="geometry">
            <mxPoint x="270" y="390" as="sourcePoint" />
            <mxPoint x="320" y="340" as="targetPoint" />
            <Array as="points">
              <mxPoint x="250" y="330" />
            </Array>
          </mxGeometry>
        </mxCell>
        <mxCell id="uGheI64tB1CJ_IJ5QVsL-10" value="RESERVAT" style="rounded=0;whiteSpace=wrap;html=1;" vertex="1" parent="1">
          <mxGeometry x="80" y="520" width="120" height="60" as="geometry" />
        </mxCell>
        <mxCell id="uGheI64tB1CJ_IJ5QVsL-11" value="MODIFICAT" style="rounded=0;whiteSpace=wrap;html=1;" vertex="1" parent="1">
          <mxGeometry x="310" y="525" width="120" height="60" as="geometry" />
        </mxCell>
        <mxCell id="uGheI64tB1CJ_IJ5QVsL-12" value="" style="endArrow=none;html=1;rounded=0;entryX=0.5;entryY=1;entryDx=0;entryDy=0;" edge="1" parent="1" target="uGheI64tB1CJ_IJ5QVsL-8">
          <mxGeometry width="50" height="50" relative="1" as="geometry">
            <mxPoint x="250" y="490" as="sourcePoint" />
            <mxPoint x="250" y="450" as="targetPoint" />
          </mxGeometry>
        </mxCell>
        <mxCell id="uGheI64tB1CJ_IJ5QVsL-13" value="" style="endArrow=none;html=1;rounded=0;" edge="1" parent="1">
          <mxGeometry width="50" height="50" relative="1" as="geometry">
            <mxPoint x="140" y="490" as="sourcePoint" />
            <mxPoint x="370" y="490" as="targetPoint" />
          </mxGeometry>
        </mxCell>
        <mxCell id="uGheI64tB1CJ_IJ5QVsL-14" value="" style="endArrow=none;html=1;rounded=0;exitX=0.5;exitY=0;exitDx=0;exitDy=0;" edge="1" parent="1" source="2Y55vcO3c6jIF8eaEMWM-48">
          <mxGeometry width="50" height="50" relative="1" as="geometry">
            <mxPoint x="100" y="540" as="sourcePoint" />
            <mxPoint x="140" y="490" as="targetPoint" />
          </mxGeometry>
        </mxCell>
        <mxCell id="uGheI64tB1CJ_IJ5QVsL-15" value="" style="endArrow=none;html=1;rounded=0;exitX=0.5;exitY=0;exitDx=0;exitDy=0;" edge="1" parent="1" source="uGheI64tB1CJ_IJ5QVsL-19">
          <mxGeometry width="50" height="50" relative="1" as="geometry">
            <mxPoint x="330" y="550" as="sourcePoint" />
            <mxPoint x="370" y="490" as="targetPoint" />
          </mxGeometry>
        </mxCell>
        <mxCell id="uGheI64tB1CJ_IJ5QVsL-18" value="N" style="text;html=1;align=center;verticalAlign=middle;whiteSpace=wrap;rounded=0;" vertex="1" parent="1">
          <mxGeometry x="140" y="490" width="50" height="25" as="geometry" />
        </mxCell>
        <mxCell id="uGheI64tB1CJ_IJ5QVsL-21" value="" style="endArrow=none;html=1;rounded=0;exitX=0.5;exitY=0;exitDx=0;exitDy=0;" edge="1" parent="1" source="uGheI64tB1CJ_IJ5QVsL-11" target="uGheI64tB1CJ_IJ5QVsL-19">
          <mxGeometry width="50" height="50" relative="1" as="geometry">
            <mxPoint x="370" y="525" as="sourcePoint" />
            <mxPoint x="370" y="490" as="targetPoint" />
          </mxGeometry>
        </mxCell>
        <mxCell id="uGheI64tB1CJ_IJ5QVsL-19" value="" style="ellipse;whiteSpace=wrap;html=1;aspect=fixed;" vertex="1" parent="1">
          <mxGeometry x="365" y="505" width="10" height="10" as="geometry" />
        </mxCell>
        <mxCell id="uGheI64tB1CJ_IJ5QVsL-23" value="" style="endArrow=none;html=1;rounded=0;exitX=0.5;exitY=0;exitDx=0;exitDy=0;" edge="1" parent="1" source="uGheI64tB1CJ_IJ5QVsL-10" target="2Y55vcO3c6jIF8eaEMWM-48">
          <mxGeometry width="50" height="50" relative="1" as="geometry">
            <mxPoint x="140" y="520" as="sourcePoint" />
            <mxPoint x="140" y="490" as="targetPoint" />
          </mxGeometry>
        </mxCell>
        <mxCell id="2Y55vcO3c6jIF8eaEMWM-48" value="" style="ellipse;whiteSpace=wrap;html=1;aspect=fixed;" vertex="1" parent="1">
          <mxGeometry x="135" y="500" width="10" height="10" as="geometry" />
        </mxCell>
        <mxCell id="Q_Y_cNss-UVwixT17-9k-1" value="" style="endArrow=none;html=1;rounded=0;" edge="1" parent="1">
          <mxGeometry width="50" height="50" relative="1" as="geometry">
            <mxPoint x="40" y="100" as="sourcePoint" />
            <mxPoint x="40" y="60" as="targetPoint" />
          </mxGeometry>
        </mxCell>
        <mxCell id="Q_Y_cNss-UVwixT17-9k-2" value="" style="endArrow=none;html=1;rounded=0;" edge="1" parent="1">
          <mxGeometry width="50" height="50" relative="1" as="geometry">
            <mxPoint x="-50" y="100" as="sourcePoint" />
            <mxPoint x="-50" y="60" as="targetPoint" />
          </mxGeometry>
        </mxCell>
        <mxCell id="Q_Y_cNss-UVwixT17-9k-3" value="M" style="text;html=1;align=center;verticalAlign=middle;whiteSpace=wrap;rounded=0;" vertex="1" parent="1">
          <mxGeometry x="-80" y="35" width="60" height="30" as="geometry" />
        </mxCell>
        <mxCell id="Q_Y_cNss-UVwixT17-9k-4" value="" style="endArrow=none;html=1;rounded=0;entryX=0;entryY=0.5;entryDx=0;entryDy=0;exitX=1;exitY=0.5;exitDx=0;exitDy=0;" edge="1" parent="1" source="2Y55vcO3c6jIF8eaEMWM-17" target="2Y55vcO3c6jIF8eaEMWM-7">
          <mxGeometry width="50" height="50" relative="1" as="geometry">
            <mxPoint x="-20" y="160" as="sourcePoint" />
            <mxPoint x="30" y="110" as="targetPoint" />
          </mxGeometry>
        </mxCell>
        <mxCell id="Q_Y_cNss-UVwixT17-9k-5" value="" style="endArrow=none;html=1;rounded=0;entryX=0;entryY=0.5;entryDx=0;entryDy=0;exitX=1;exitY=0.5;exitDx=0;exitDy=0;" edge="1" parent="1" source="2Y55vcO3c6jIF8eaEMWM-3" target="2Y55vcO3c6jIF8eaEMWM-17">
          <mxGeometry width="50" height="50" relative="1" as="geometry">
            <mxPoint x="-80" y="180" as="sourcePoint" />
            <mxPoint x="-30" y="130" as="targetPoint" />
          </mxGeometry>
        </mxCell>
        <mxCell id="UQS-GAZxLYewKY9G8Ljq-2" value="" style="endArrow=none;html=1;rounded=0;entryX=0;entryY=0;entryDx=0;entryDy=0;" edge="1" parent="1" target="2Y55vcO3c6jIF8eaEMWM-1">
          <mxGeometry width="50" height="50" relative="1" as="geometry">
            <mxPoint x="40" y="200" as="sourcePoint" />
            <mxPoint x="130" y="160" as="targetPoint" />
            <Array as="points">
              <mxPoint x="290" y="200" />
            </Array>
          </mxGeometry>
        </mxCell>
        <mxCell id="UQS-GAZxLYewKY9G8Ljq-3" value="té unic" style="rhombus;whiteSpace=wrap;html=1;" vertex="1" parent="1">
          <mxGeometry x="-40" y="160" width="80" height="80" as="geometry" />
        </mxCell>
        <mxCell id="UQS-GAZxLYewKY9G8Ljq-4" value="" style="endArrow=none;html=1;rounded=0;entryX=0.5;entryY=1;entryDx=0;entryDy=0;exitX=0;exitY=0.5;exitDx=0;exitDy=0;" edge="1" parent="1" source="UQS-GAZxLYewKY9G8Ljq-3" target="2Y55vcO3c6jIF8eaEMWM-3">
          <mxGeometry width="50" height="50" relative="1" as="geometry">
            <mxPoint x="-180" y="210" as="sourcePoint" />
            <mxPoint x="-130" y="160" as="targetPoint" />
            <Array as="points">
              <mxPoint x="-120" y="200" />
            </Array>
          </mxGeometry>
        </mxCell>
        <mxCell id="UQS-GAZxLYewKY9G8Ljq-5" value="" style="endArrow=none;html=1;rounded=0;entryX=0.5;entryY=1;entryDx=0;entryDy=0;exitX=0.5;exitY=0;exitDx=0;exitDy=0;" edge="1" parent="1" source="UQS-GAZxLYewKY9G8Ljq-3" target="2Y55vcO3c6jIF8eaEMWM-7">
          <mxGeometry width="50" height="50" relative="1" as="geometry">
            <mxPoint x="110" y="200" as="sourcePoint" />
            <mxPoint x="130" y="140" as="targetPoint" />
            <Array as="points">
              <mxPoint x="110" y="160" />
            </Array>
          </mxGeometry>
        </mxCell>
        <mxCell id="UQS-GAZxLYewKY9G8Ljq-6" value="" style="endArrow=none;html=1;rounded=0;" edge="1" parent="1">
          <mxGeometry width="50" height="50" relative="1" as="geometry">
            <mxPoint x="377.75" y="270" as="sourcePoint" />
            <mxPoint x="342.25" y="270" as="targetPoint" />
          </mxGeometry>
        </mxCell>
        <mxCell id="iWZB85wK0hpEPlM2tfPp-2" value="" style="endArrow=none;html=1;rounded=0;" edge="1" parent="1">
          <mxGeometry width="50" height="50" relative="1" as="geometry">
            <mxPoint x="305.5" y="257" as="sourcePoint" />
            <mxPoint x="270" y="257" as="targetPoint" />
          </mxGeometry>
        </mxCell>
        <mxCell id="iWZB85wK0hpEPlM2tfPp-3" value="" style="endArrow=none;html=1;rounded=0;" edge="1" parent="1">
          <mxGeometry width="50" height="50" relative="1" as="geometry">
            <mxPoint x="127.75" y="124.5" as="sourcePoint" />
            <mxPoint x="92.25" y="124.5" as="targetPoint" />
          </mxGeometry>
        </mxCell>
        <mxCell id="iWZB85wK0hpEPlM2tfPp-4" value="" style="endArrow=none;html=1;rounded=0;" edge="1" parent="1">
          <mxGeometry width="50" height="50" relative="1" as="geometry">
            <mxPoint x="-102.25" y="124.5" as="sourcePoint" />
            <mxPoint x="-137.75" y="124.5" as="targetPoint" />
          </mxGeometry>
        </mxCell>
        <mxCell id="iWZB85wK0hpEPlM2tfPp-5" value="1" style="text;html=1;align=center;verticalAlign=middle;whiteSpace=wrap;rounded=0;" vertex="1" parent="1">
          <mxGeometry x="245" y="220" width="60" height="30" as="geometry" />
        </mxCell>
        <mxCell id="iWZB85wK0hpEPlM2tfPp-6" value="1" style="text;html=1;align=center;verticalAlign=middle;whiteSpace=wrap;rounded=0;" vertex="1" parent="1">
          <mxGeometry x="70" y="120" width="60" height="30" as="geometry" />
        </mxCell>
        <mxCell id="iWZB85wK0hpEPlM2tfPp-7" value="1" style="text;html=1;align=center;verticalAlign=middle;whiteSpace=wrap;rounded=0;" vertex="1" parent="1">
          <mxGeometry x="-170" y="130" width="60" height="30" as="geometry" />
        </mxCell>
        <mxCell id="gP0IBoTzKRrwgdRy53_q-2" value="D,T" style="text;html=1;align=center;verticalAlign=middle;whiteSpace=wrap;rounded=0;rotation=90;" vertex="1" parent="1">
          <mxGeometry x="185" y="270" width="60" height="30" as="geometry" />
        </mxCell>
      </root>
    </mxGraphModel>
  </diagram>
</mxfile>
